<svg width="14" height="14" viewBox="0 0 14 14" fill="none" xmlns="http://www.w3.org/2000/svg">
<path d="M10.465 10.4649C9.46782 11.225 8.25363 11.6461 6.99998 11.6666C2.91665 11.6666 0.583313 6.99992 0.583313 6.99992C1.30892 5.64769 2.31531 4.46627 3.53498 3.53492M5.77498 2.47325C6.17651 2.37926 6.5876 2.33228 6.99998 2.33325C11.0833 2.33325 13.4166 6.99992 13.4166 6.99992C13.0625 7.66236 12.6403 8.28601 12.1566 8.86075M8.23665 8.23658C8.07643 8.40852 7.88323 8.54643 7.66857 8.64207C7.4539 8.73772 7.22217 8.78915 6.9872 8.7933C6.75223 8.79744 6.51882 8.75422 6.30092 8.6662C6.08301 8.57819 5.88507 8.44718 5.71889 8.28101C5.55271 8.11483 5.42171 7.91688 5.33369 7.69898C5.24568 7.48107 5.20245 7.24767 5.2066 7.0127C5.21074 6.77773 5.26218 6.54599 5.35782 6.33133C5.45347 6.11666 5.59138 5.92346 5.76331 5.76325M0.583313 0.583252L13.4166 13.4166" stroke="black" stroke-width="1.4" stroke-linecap="round" stroke-linejoin="round"/>
</svg>
