<svg width="34" height="34" viewBox="0 0 34 34" fill="none" xmlns="http://www.w3.org/2000/svg">
<rect x="0.5" y="0.5" width="33" height="33" rx="9.5" stroke="#2FBE39"/>
<path d="M17.0434 7C11.3714 7 6.75541 11.446 6.75341 16.91C6.75208 18.6573 7.22675 20.3627 8.12675 21.8647L6.66675 27L12.1221 25.622C13.6396 26.4158 15.3269 26.8298 17.0394 26.8287H17.0434C22.7154 26.8287 27.3314 22.382 27.3334 16.918C27.3347 14.2713 26.2654 11.78 24.3221 9.90733C22.3794 8.034 19.7961 7.00067 17.0434 7ZM17.0434 25.1547H17.0401C15.5054 25.1547 14.0001 24.7573 12.6867 24.0067L12.3734 23.828L9.13741 24.6453L10.0014 21.6053L9.79808 21.294C8.94402 19.9914 8.48937 18.4676 8.49008 16.91C8.49208 12.368 12.3294 8.674 17.0467 8.674C19.3307 8.67467 21.4781 9.53267 23.0934 11.0893C24.7087 12.646 25.5974 14.716 25.5961 16.9173C25.5941 21.4593 21.7574 25.1547 17.0427 25.1547H17.0434ZM21.7347 18.9847C21.4774 18.8613 20.2134 18.262 19.9774 18.1787C19.7421 18.0967 19.5707 18.054 19.3994 18.302C19.2287 18.55 18.7354 19.108 18.5861 19.2727C18.4354 19.438 18.2854 19.458 18.0281 19.3347C17.7707 19.2107 16.9421 18.9493 15.9607 18.1053C15.1961 17.4493 14.6801 16.6387 14.5301 16.39C14.3801 16.1427 14.5141 16.0087 14.6427 15.8853C14.7581 15.7753 14.9001 15.5967 15.0281 15.452C15.1561 15.3073 15.1987 15.204 15.2854 15.0387C15.3707 14.874 15.3281 14.7287 15.2634 14.6053C15.1987 14.4807 14.6854 13.262 14.4701 12.7667C14.2621 12.284 14.0501 12.3487 13.8921 12.3407C13.7421 12.334 13.5714 12.332 13.3987 12.332C13.2287 12.332 12.9494 12.394 12.7134 12.642C12.4781 12.89 11.8134 13.4887 11.8134 14.7073C11.8134 15.9267 12.7347 17.104 12.8634 17.2693C12.9921 17.434 14.6767 19.936 17.2561 21.0093C17.8694 21.2633 18.3481 21.416 18.7221 21.5307C19.3381 21.7193 19.8987 21.692 20.3414 21.6287C20.8347 21.5573 21.8627 21.03 22.0761 20.452C22.2907 19.874 22.2907 19.378 22.2267 19.2747C22.1641 19.1713 21.9921 19.1093 21.7347 18.9847Z" fill="white"/>
</svg>
