<svg width="34" height="34" viewBox="0 0 34 34" fill="none" xmlns="http://www.w3.org/2000/svg">
<rect width="34" height="34" rx="10" fill="#2FBE39"/>
<path d="M17.0434 7C11.3714 7 6.75535 11.446 6.75335 16.91C6.75202 18.6573 7.22669 20.3627 8.12669 21.8647L6.66669 27L12.122 25.622C13.6395 26.4158 15.3268 26.8298 17.0394 26.8287H17.0434C22.7154 26.8287 27.3314 22.382 27.3334 16.918C27.3347 14.2713 26.2654 11.78 24.322 9.90733C22.3794 8.034 19.796 7.00067 17.0434 7ZM17.0434 25.1547H17.04C15.5054 25.1547 14 24.7573 12.6867 24.0067L12.3734 23.828L9.13735 24.6453L10.0014 21.6053L9.79802 21.294C8.94396 19.9914 8.48931 18.4676 8.49002 16.91C8.49202 12.368 12.3294 8.674 17.0467 8.674C19.3307 8.67467 21.478 9.53267 23.0934 11.0893C24.7087 12.646 25.5974 14.716 25.596 16.9173C25.594 21.4593 21.7574 25.1547 17.0427 25.1547H17.0434ZM21.7347 18.9847C21.4774 18.8613 20.2134 18.262 19.9774 18.1787C19.742 18.0967 19.5707 18.054 19.3994 18.302C19.2287 18.55 18.7354 19.108 18.586 19.2727C18.4354 19.438 18.2854 19.458 18.028 19.3347C17.7707 19.2107 16.942 18.9493 15.9607 18.1053C15.196 17.4493 14.68 16.6387 14.53 16.39C14.38 16.1427 14.514 16.0087 14.6427 15.8853C14.758 15.7753 14.9 15.5967 15.028 15.452C15.156 15.3073 15.1987 15.204 15.2854 15.0387C15.3707 14.874 15.328 14.7287 15.2634 14.6053C15.1987 14.4807 14.6854 13.262 14.47 12.7667C14.262 12.284 14.05 12.3487 13.892 12.3407C13.742 12.334 13.5714 12.332 13.3987 12.332C13.2287 12.332 12.9494 12.394 12.7134 12.642C12.478 12.89 11.8134 13.4887 11.8134 14.7073C11.8134 15.9267 12.7347 17.104 12.8634 17.2693C12.992 17.434 14.6767 19.936 17.256 21.0093C17.8694 21.2633 18.348 21.416 18.722 21.5307C19.338 21.7193 19.8987 21.692 20.3414 21.6287C20.8347 21.5573 21.8627 21.03 22.076 20.452C22.2907 19.874 22.2907 19.378 22.2267 19.2747C22.164 19.1713 21.992 19.1093 21.7347 18.9847Z" fill="white"/>
</svg>
